<?xml version="1.0" encoding="utf-8"?>
<!-- Generator: Adobe Illustrator 22.1.0, SVG Export Plug-In . SVG Version: 6.00 Build 0)  -->
<svg version="1.1" xmlns="http://www.w3.org/2000/svg" xmlns:xlink="http://www.w3.org/1999/xlink" x="0px" y="0px"
	 viewBox="0 0 882.6 203.8" style="enable-background:new 0 0 882.6 203.8;" xml:space="preserve">
<style type="text/css">
	.st0{display:none;fill:#4C4C4D;}
	.st1{fill:#217BC0;}
	.st2{fill:#33A852;}
	.st3{fill:#EA4435;}
	.st4{fill:#F9BC15;}
	.st5{fill:#FFFFFF;}
</style>
<g id="Layer_1">
	<rect x="-56.2" y="-162.7" class="st0" width="1024" height="550"/>
	<g>
		<path class="st1" d="M142.3,163.8c-4.7,8.1-13.2,12.6-21.9,12.6c-4.3,0-8.6-1.1-12.6-3.4l-88.7-51.2c-12.1-7-16.2-22.4-9.2-34.5
			c4.7-8.1,13.2-12.6,21.9-12.6c4.3,0,8.6,1.1,12.6,3.4l88.7,51.2C145.2,136.3,149.3,151.7,142.3,163.8z"/>
		<path class="st1" d="M186.7,36.2c4.7-8.1,13.2-12.6,21.9-12.6c4.3,0,8.6,1.1,12.6,3.4l88.7,51.2c12.1,7,16.2,22.4,9.2,34.5
			c-4.7,8.1-13.2,12.6-21.9,12.6c-4.3,0-8.6-1.1-12.6-3.4L196,70.7C183.9,63.7,179.8,48.2,186.7,36.2z"/>
		<path class="st1" d="M133.1,70.7L88.5,96.4l-41-23.7c-3.7-2.2-7.9-3.5-12.1-4l72.4-41.8c4-2.3,8.3-3.4,12.6-3.4
			c8.7,0,17.2,4.5,21.9,12.6C149.3,48.2,145.2,63.7,133.1,70.7z"/>
		<path class="st1" d="M196,129.3l44.6-25.8l41,23.7c3.7,2.2,7.9,3.5,12.1,4l-72.4,41.8c-4,2.3-8.3,3.4-12.6,3.4
			c-8.7,0-17.2-4.5-21.9-12.6C179.8,151.7,183.9,136.3,196,129.3z"/>
	</g>
	<g>
		<g>
			<path class="st1" d="M375.7,82.6c-4.7-2.7-8.4-6.4-11.1-11.1c-2.7-4.7-4.1-10-4.1-15.7c0-5.7,1.4-10.9,4.1-15.7
				c2.7-4.7,6.5-8.4,11.1-11.1c4.7-2.7,9.8-4,15.3-4c4.3,0,8.4,0.8,12.2,2.3c3.8,1.5,7,3.7,9.4,6.5l-5,5c-1.9-2.3-4.3-4.1-7.2-5.3
				c-2.9-1.2-6-1.9-9.4-1.9c-4.2,0-8.1,1-11.7,3c-3.6,2-6.5,4.8-8.7,8.5c-2.2,3.7-3.3,7.9-3.3,12.7s1.1,9,3.3,12.7
				c2.2,3.7,5.1,6.5,8.7,8.5c3.6,2,7.5,3,11.6,3c4,0,7.3-0.6,9.9-1.9c2.7-1.2,5-2.9,6.9-4.9c1.4-1.5,2.6-3.4,3.5-5.6
				c0.9-2.2,1.4-4.6,1.6-7.2h-21.9v-6.5h28.4c0.3,1.5,0.4,3,0.4,4.3c0,3.6-0.6,7.2-1.7,10.6c-1.2,3.4-3,6.4-5.5,9
				c-5.4,5.9-12.7,8.8-21.7,8.8C385.5,86.6,380.4,85.3,375.7,82.6z"/>
			<path class="st1" d="M428.6,26.2h17.8c6,0,11.3,1.3,15.8,3.8c4.5,2.5,8,6,10.4,10.4c2.4,4.5,3.6,9.6,3.6,15.3
				c0,5.8-1.2,10.9-3.6,15.3c-2.4,4.5-5.9,7.9-10.4,10.4c-4.5,2.5-9.8,3.8-15.8,3.8h-17.8V26.2z M446.4,78.6c7,0,12.5-2,16.6-6
				c4.1-4,6.1-9.6,6.1-16.8c0-7.2-2-12.8-6.1-16.8c-4.1-4-9.6-6-16.6-6h-10.9v45.7H446.4z"/>
			<path class="st1" d="M497.3,82.6c-4.7-2.7-8.4-6.4-11.1-11.1c-2.7-4.7-4.1-10-4.1-15.7c0-5.7,1.4-10.9,4.1-15.7
				c2.7-4.7,6.5-8.4,11.1-11.1c4.7-2.7,9.8-4,15.3-4c4.3,0,8.4,0.8,12.2,2.3c3.8,1.5,7,3.7,9.4,6.5l-5,5c-1.9-2.3-4.3-4.1-7.2-5.3
				c-2.9-1.2-6-1.9-9.4-1.9c-4.2,0-8.1,1-11.7,3c-3.6,2-6.5,4.8-8.7,8.5c-2.2,3.7-3.3,7.9-3.3,12.7s1.1,9,3.3,12.7
				c2.2,3.7,5.1,6.5,8.7,8.5c3.6,2,7.5,3,11.6,3c4,0,7.3-0.6,9.9-1.9c2.7-1.2,5-2.9,6.9-4.9c1.4-1.5,2.6-3.4,3.5-5.6
				c0.9-2.2,1.4-4.6,1.6-7.2h-21.9v-6.5h28.4c0.3,1.5,0.4,3,0.4,4.3c0,3.6-0.6,7.2-1.7,10.6c-1.2,3.4-3,6.4-5.5,9
				c-5.4,5.9-12.7,8.8-21.7,8.8C507.1,86.6,502,85.3,497.3,82.6z"/>
		</g>
		<g>
			<path class="st1" d="M568.8,26h18c6.1,0,11.4,1.3,15.9,3.8c4.5,2.5,8,6,10.5,10.5c2.4,4.5,3.7,9.6,3.7,15.4
				c0,5.8-1.2,11-3.7,15.4c-2.4,4.5-5.9,8-10.5,10.5c-4.5,2.5-9.8,3.8-15.9,3.8h-18V26z M586.8,78.7c7,0,12.6-2,16.7-6.1
				c4.1-4,6.1-9.7,6.1-16.9c0-7.2-2-12.9-6.1-16.9c-4.1-4-9.7-6.1-16.7-6.1h-11v46H586.8z"/>
			<path class="st1" d="M633.6,83.9c-3.1-1.9-5.6-4.5-7.3-7.8c-1.8-3.3-2.7-7.1-2.7-11.3c0-4,0.8-7.6,2.5-11c1.7-3.3,4-6,7.1-8
				s6.6-2.9,10.6-2.9c4,0,7.5,0.9,10.5,2.7c3,1.8,5.3,4.3,6.9,7.6c1.6,3.3,2.4,7,2.4,11.3c0,0.8-0.1,1.3-0.2,1.7h-32.7
				c0.1,3.1,0.9,5.7,2.2,7.8c1.4,2.1,3.1,3.7,5.2,4.8c2.1,1.1,4.2,1.6,6.4,1.6c5.2,0,9.2-2.5,12-7.6l6.2,3c-1.8,3.3-4.2,6-7.3,8
				c-3.1,2-6.9,3-11.2,3C640.3,86.7,636.7,85.8,633.6,83.9z M656.2,60.3c-0.1-1.7-0.6-3.3-1.4-5c-0.8-1.7-2.2-3.1-4-4.2
				c-1.9-1.2-4.2-1.7-7.1-1.7c-3.1,0-5.8,1-8.1,3c-2.3,2-3.7,4.6-4.3,8H656.2z"/>
			<path class="st1" d="M667.8,44.2h7.6L688,77.1h0.2L701,44.2h7.5l-16.8,41.2h-7.1L667.8,44.2z"/>
			<path class="st1" d="M717.2,26h34.4v6.7h-27.4V53H749v6.6h-24.7v25.7h-7.1V26z"/>
			<path class="st1" d="M766.6,83.9c-3.1-1.9-5.6-4.5-7.3-7.8c-1.8-3.3-2.7-7.1-2.7-11.3c0-4,0.8-7.6,2.5-11c1.7-3.3,4-6,7.1-8
				c3.1-2,6.6-2.9,10.6-2.9s7.5,0.9,10.5,2.7c3,1.8,5.3,4.3,6.9,7.6c1.6,3.3,2.4,7,2.4,11.3c0,0.8-0.1,1.3-0.2,1.7h-32.7
				c0.1,3.1,0.9,5.7,2.2,7.8c1.4,2.1,3.1,3.7,5.2,4.8c2.1,1.1,4.2,1.6,6.4,1.6c5.2,0,9.2-2.5,12-7.6l6.2,3c-1.8,3.3-4.2,6-7.3,8
				s-6.9,3-11.2,3C773.3,86.7,769.7,85.8,766.6,83.9z M789.1,60.3c-0.1-1.7-0.6-3.3-1.4-5s-2.2-3.1-4-4.2c-1.9-1.2-4.2-1.7-7.1-1.7
				c-3.1,0-5.8,1-8.1,3c-2.3,2-3.7,4.6-4.3,8H789.1z"/>
			<path class="st1" d="M810,83.4c-3-2.2-5.2-5-6.4-8.2l6.2-2.7c1.1,2.6,2.7,4.6,4.7,6c2,1.4,4.2,2.1,6.6,2.1c2.7,0,4.9-0.6,6.6-1.7
				s2.6-2.6,2.6-4.2c0-1.6-0.7-2.9-2-4c-1.3-1.1-3.5-2-6.7-2.7l-5.6-1.4c-3.1-0.7-5.7-2-7.9-3.9c-2.2-1.9-3.3-4.4-3.3-7.5
				c0-2.5,0.7-4.7,2.2-6.6c1.5-1.8,3.4-3.2,5.9-4.2c2.4-0.9,5.1-1.4,8-1.4c3.5,0,6.8,0.8,9.7,2.4c2.9,1.6,5,3.9,6.2,6.9l-6.2,2.7
				c-0.9-2-2.2-3.5-4-4.4c-1.8-0.9-3.8-1.4-6-1.4c-2.2,0-4.1,0.5-5.9,1.6c-1.7,1.1-2.6,2.4-2.6,4.1c0,1.4,0.6,2.6,1.7,3.4
				c1.1,0.8,2.9,1.6,5.4,2.2l6.1,1.5c4.1,1.1,7.2,2.6,9.2,4.7c2,2.1,3,4.6,3,7.4c0,2.4-0.7,4.5-2.1,6.5c-1.4,1.9-3.3,3.5-5.8,4.6
				s-5.3,1.7-8.5,1.7C816.8,86.7,813.1,85.6,810,83.4z"/>
			<path class="st1" d="M857.6,85.9c-1.4-0.6-2.6-1.3-3.6-2.3c-1.1-1.1-1.9-2.3-2.4-3.8c-0.5-1.4-0.8-3.1-0.8-5.1V50.6h-7.3v-6.4
				h7.3V32h7v12.3h10.1v6.4h-10.1V73c0,2.4,0.5,4.1,1.4,5.3c0.9,1.2,2.4,1.9,4.3,1.9c1.7,0,3.2-0.4,4.5-1.2v6.8
				c-0.9,0.3-1.7,0.6-2.5,0.7c-0.8,0.1-1.9,0.2-3.2,0.2C860.5,86.7,859,86.5,857.6,85.9z"/>
		</g>
		<g>
			<path class="st1" d="M371.8,169.7c-2.8-1.2-5.2-3-7.3-5.4c-2.1-2.4-3.6-5.3-4.6-8.7l6.6-2.7c0.9,3.5,2.7,6.4,5.2,8.6
				c2.5,2.2,5.4,3.4,8.8,3.4c3.4,0,6.3-0.9,8.7-2.7c2.4-1.8,3.5-4.3,3.5-7.5c0-2.7-1-5-3-6.8c-2-1.8-5.3-3.4-9.8-5l-3.7-1.3
				c-4.2-1.5-7.5-3.4-10.2-5.8c-2.6-2.4-3.9-5.7-3.9-10c0-2.8,0.8-5.4,2.3-7.7c1.5-2.4,3.6-4.3,6.4-5.7c2.7-1.4,5.8-2.1,9.1-2.1
				c3.4,0,6.4,0.6,8.9,1.9c2.5,1.3,4.6,2.8,6.1,4.6c1.5,1.8,2.5,3.6,3.1,5.3l-6.5,2.8c-0.6-2.1-1.9-3.9-3.8-5.5
				c-1.9-1.6-4.5-2.4-7.6-2.4c-3,0-5.6,0.8-7.7,2.5c-2.1,1.7-3.2,3.8-3.2,6.4c0,2.3,0.9,4.2,2.7,5.6c1.8,1.4,4.5,2.8,8.2,4.1
				l3.8,1.3c5,1.8,8.9,4.1,11.7,6.8c2.8,2.7,4.2,6.4,4.2,11c0,3.8-1,6.9-2.9,9.5c-1.9,2.6-4.4,4.5-7.3,5.7s-6,1.8-9.2,1.8
				C377.4,171.6,374.6,171,371.8,169.7z"/>
			<path class="st1" d="M417.8,168.8c-3.1-1.9-5.5-4.4-7.3-7.7c-1.8-3.3-2.6-7-2.6-11.2c0-3.9,0.8-7.6,2.5-10.9c1.6-3.3,4-5.9,7-7.9
				c3-1.9,6.5-2.9,10.5-2.9s7.4,0.9,10.4,2.7c3,1.8,5.3,4.3,6.8,7.5c1.6,3.2,2.4,6.9,2.4,11.2c0,0.8-0.1,1.3-0.2,1.6h-32.3
				c0.1,3.1,0.8,5.6,2.2,7.8c1.4,2.1,3.1,3.7,5.1,4.7c2,1,4.2,1.6,6.4,1.6c5.1,0,9.1-2.5,11.9-7.5l6.2,3c-1.8,3.3-4.2,5.9-7.3,7.9
				c-3.1,2-6.8,3-11.1,3C424.4,171.6,420.8,170.6,417.8,168.8z M440,145.4c-0.1-1.6-0.6-3.3-1.4-4.9c-0.8-1.6-2.1-3-4-4.2
				c-1.8-1.1-4.2-1.7-7-1.7c-3.1,0-5.7,1-8,3c-2.2,2-3.7,4.6-4.3,7.9H440z"/>
			<path class="st1" d="M462.5,169.8c-2.4-1.2-4.2-2.8-5.6-4.9c-1.3-2.1-2-4.5-2-7.1c0-4.3,1.6-7.7,4.9-10.1
				c3.3-2.4,7.4-3.6,12.5-3.6c2.5,0,4.8,0.3,6.8,0.8c2,0.5,3.6,1.1,4.8,1.8v-2.1c0-2-0.5-3.7-1.5-5.3s-2.4-2.8-4.1-3.6
				c-1.7-0.8-3.5-1.3-5.5-1.3c-4.6,0-8.2,1.9-10.7,5.7l-5.8-3.9c1.7-2.5,3.9-4.5,6.7-5.9c2.8-1.4,5.9-2.1,9.4-2.1
				c5.6,0,10,1.5,13.2,4.5c3.2,3,4.8,7.1,4.8,12.1v25.3H484v-6h-0.3c-1.3,2.1-3.1,3.8-5.3,5.2c-2.2,1.4-4.8,2.1-7.8,2.1
				S464.9,171,462.5,169.8z M477.3,163.7c2-1.1,3.6-2.7,4.8-4.7c1.2-2,1.8-4.1,1.8-6.4c-3.1-2-6.6-3-10.6-3c-3.4,0-6.2,0.8-8.2,2.3
				s-3.1,3.5-3.1,5.9c0,2.2,0.9,4,2.7,5.4c1.8,1.4,3.9,2.1,6.3,2.1C473.3,165.4,475.4,164.8,477.3,163.7z"/>
			<path class="st1" d="M504.7,168.3c-3-2.2-5.1-4.9-6.3-8.1l6.2-2.7c1.1,2.6,2.6,4.5,4.6,5.9c2,1.4,4.2,2,6.5,2
				c2.6,0,4.8-0.6,6.5-1.7c1.7-1.1,2.6-2.5,2.6-4.2c0-1.6-0.6-2.9-1.9-3.9c-1.3-1-3.5-1.9-6.6-2.7l-5.6-1.4c-3.1-0.7-5.7-2-7.8-3.9
				c-2.2-1.9-3.2-4.3-3.2-7.4c0-2.5,0.7-4.7,2.2-6.5c1.4-1.8,3.4-3.2,5.8-4.1c2.4-0.9,5-1.4,7.9-1.4c3.5,0,6.7,0.8,9.6,2.4
				c2.9,1.6,4.9,3.9,6.1,6.8l-6.1,2.6c-0.9-2-2.2-3.4-4-4.3c-1.8-0.9-3.8-1.4-5.9-1.4c-2.1,0-4.1,0.5-5.8,1.6c-1.7,1-2.6,2.4-2.6,4
				c0,1.4,0.6,2.5,1.7,3.4c1.1,0.8,2.9,1.6,5.4,2.2l6.1,1.5c4,1,7.1,2.6,9.1,4.6c2,2.1,3,4.5,3,7.3c0,2.4-0.7,4.5-2,6.4
				c-1.4,1.9-3.3,3.4-5.7,4.5c-2.5,1.1-5.2,1.6-8.4,1.6C511.4,171.6,507.7,170.5,504.7,168.3z"/>
			<path class="st1" d="M549.2,168.7c-3.2-1.9-5.6-4.5-7.4-7.8c-1.8-3.3-2.7-7-2.7-11c0-4,0.9-7.7,2.7-11c1.8-3.3,4.2-5.9,7.4-7.8
				c3.2-1.9,6.8-2.8,10.7-2.8c4,0,7.6,0.9,10.8,2.8c3.2,1.9,5.7,4.5,7.5,7.8c1.8,3.3,2.7,7,2.7,11c0,4-0.9,7.7-2.7,11
				c-1.8,3.3-4.3,5.9-7.5,7.8c-3.2,1.9-6.8,2.8-10.8,2.8C555.9,171.6,552.3,170.6,549.2,168.7z M566.8,163.4c2.1-1.3,3.8-3,5.1-5.4
				c1.3-2.3,1.9-5,1.9-8.1s-0.6-5.8-1.9-8.1c-1.3-2.3-3-4.1-5.1-5.4c-2.1-1.3-4.4-1.9-6.9-1.9c-2.4,0-4.7,0.6-6.8,1.9
				c-2.1,1.3-3.8,3-5.1,5.4c-1.3,2.3-1.9,5-1.9,8.1s0.6,5.8,1.9,8.1c1.3,2.3,3,4.1,5.1,5.4c2.1,1.3,4.4,1.9,6.8,1.9
				C562.4,165.3,564.7,164.6,566.8,163.4z"/>
			<path class="st1" d="M589.5,129.6h6.6v6.1h0.3c1.1-2.1,3-3.8,5.4-5.2c2.5-1.4,5.1-2.1,7.9-2.1c5,0,8.8,1.4,11.4,4.3
				c2.6,2.9,3.9,6.9,3.9,11.9v25.7h-6.9v-24.7c0-7.3-3.4-11-10.2-11c-2.2,0-4.2,0.6-5.9,1.9c-1.8,1.3-3.1,2.9-4.1,4.9
				c-1,2-1.4,4.2-1.4,6.4v22.5h-7V129.6z"/>
			<path class="st1" d="M655.8,163.3c1.7-1.7,5.1-5.1,10.1-10.2c5-5.1,8.5-8.7,10.5-10.9c2.8-3,4.7-5.3,5.7-7c1-1.7,1.5-3.8,1.5-6.2
				c0-1.6-0.4-3.2-1.2-4.6c-0.8-1.4-2-2.6-3.7-3.5s-3.5-1.4-5.8-1.4c-3,0-5.3,0.9-7.1,2.6c-1.8,1.7-3,3.6-3.5,5.6l-6.3-2.5
				c0.5-1.7,1.5-3.6,3-5.5c1.4-1.9,3.3-3.5,5.7-4.8c2.4-1.3,5.2-2,8.4-2c3.4,0,6.5,0.7,9.2,2.2c2.7,1.5,4.8,3.4,6.2,5.9
				c1.5,2.5,2.2,5.1,2.2,8c0,5.8-3,11.7-9.1,17.8l-16.7,16.9h26.5v6.6h-35.5V163.3z"/>
			<path class="st1" d="M711.5,167.7c-3.4-2.6-6-6.1-7.9-10.6c-1.8-4.5-2.7-9.4-2.7-14.9c0-5.5,0.9-10.4,2.7-14.9
				c1.8-4.5,4.4-8,7.8-10.6c3.4-2.6,7.3-3.9,11.8-3.9c4.4,0,8.3,1.3,11.7,3.9c3.4,2.6,6,6.1,7.9,10.6c1.9,4.5,2.8,9.4,2.8,14.9
				c0,5.5-0.9,10.4-2.8,14.9c-1.9,4.5-4.5,8-7.9,10.6c-3.4,2.6-7.3,3.9-11.7,3.9C718.8,171.6,714.9,170.3,711.5,167.7z M731.3,161.9
				c2.3-2,4.1-4.7,5.4-8.2c1.3-3.4,1.9-7.3,1.9-11.6s-0.6-8.1-1.9-11.6c-1.3-3.4-3-6.2-5.4-8.2c-2.3-2-5-3-8.1-3c-3.1,0-5.8,1-8.1,3
				c-2.3,2-4.1,4.7-5.3,8.2c-1.3,3.4-1.9,7.3-1.9,11.6s0.6,8.1,1.9,11.6c1.3,3.4,3,6.2,5.3,8.2c2.3,2,5,3,8.1,3
				C726.3,164.9,729,163.9,731.3,161.9z"/>
			<path class="st1" d="M767.6,123.9l-9.8,7.1l-3.7-5.3l16-11.5h4.4v56.1h-6.9V123.9z"/>
			<path class="st1" d="M797.9,167.7L812,148l-0.2-0.2c-1.9,1.3-4.3,2-7.3,2c-2.8,0-5.6-0.8-8.4-2.4c-2.7-1.6-5-3.8-6.7-6.5
				c-1.7-2.8-2.6-5.8-2.6-9.2c0-3.3,0.9-6.4,2.6-9.2c1.7-2.9,4.1-5.2,7-6.9c2.9-1.7,6.1-2.6,9.5-2.6c3.8,0,7.1,0.9,10,2.7
				c2.9,1.8,5.2,4.1,6.8,7c1.6,2.9,2.4,5.9,2.4,9.1c0,3-0.6,5.9-1.8,8.7c-1.2,2.8-3,5.8-5.3,9.2l-14.8,22.1L797.9,167.7z
				 M812.2,141.9c1.9-1.1,3.4-2.5,4.5-4.3c1.1-1.8,1.6-3.8,1.6-6c0-2.2-0.5-4.3-1.6-6.1c-1.1-1.8-2.6-3.3-4.5-4.3
				c-1.9-1.1-3.9-1.6-6.1-1.6s-4.2,0.5-6,1.6c-1.8,1.1-3.3,2.5-4.4,4.3c-1.1,1.8-1.6,3.9-1.6,6.1c0,2.2,0.5,4.2,1.6,6
				c1.1,1.8,2.6,3.3,4.4,4.3c1.8,1.1,3.8,1.6,6,1.6S810.3,143,812.2,141.9z"/>
		</g>
	</g>
</g>
<g id="Layer_2">
</g>
</svg>
