<?xml version="1.0" encoding="utf-8"?>
<!-- Generator: Adobe Illustrator 22.1.0, SVG Export Plug-In . SVG Version: 6.00 Build 0)  -->
<svg version="1.1" xmlns="http://www.w3.org/2000/svg" xmlns:xlink="http://www.w3.org/1999/xlink" x="0px" y="0px"
	 viewBox="0 0 882.6 229.7" style="enable-background:new 0 0 882.6 229.7;" xml:space="preserve">
<style type="text/css">
	.st0{display:none;fill:#4C4C4D;}
	.st1{fill:#217BC0;}
	.st2{fill:#33A852;}
	.st3{fill:#EA4435;}
	.st4{fill:#F9BC15;}
	.st5{fill:#FFFFFF;}
	.st6{fill:#757576;}
</style>
<g id="Layer_1">
</g>
<g id="Layer_2">
</g>
<g id="Layer_3">
	<g>
		<g>
			<path class="st6" d="M523.9,75.5h22.9c7.7,0,14.5,1.6,20.3,4.8c5.8,3.2,10.2,7.7,13.3,13.4c3.1,5.7,4.6,12.3,4.6,19.6
				c0,7.4-1.5,13.9-4.6,19.6c-3.1,5.7-7.5,10.2-13.3,13.4c-5.8,3.2-12.5,4.8-20.3,4.8h-22.9V75.5z M546.9,142.6
				c8.9,0,16-2.6,21.2-7.7c5.2-5.1,7.8-12.3,7.8-21.5s-2.6-16.4-7.8-21.6c-5.2-5.1-12.3-7.7-21.2-7.7h-13.9v58.5H546.9z"/>
			<path class="st6" d="M606.8,149.2c-4.1-2.4-7.3-5.8-9.6-10c-2.3-4.3-3.4-9-3.4-14.2c0-5.2,1.1-9.9,3.4-14.2
				c2.3-4.3,5.5-7.6,9.6-10c4.1-2.4,8.7-3.6,13.8-3.6s9.8,1.2,13.9,3.6c4.1,2.4,7.3,5.8,9.6,10c2.3,4.3,3.4,9,3.4,14.2
				c0,5.2-1.1,9.9-3.4,14.2c-2.3,4.3-5.5,7.6-9.6,10c-4.1,2.4-8.8,3.6-13.9,3.6S610.8,151.6,606.8,149.2z M629.5,142.3
				c2.7-1.6,4.9-3.9,6.6-6.9c1.7-3,2.5-6.5,2.5-10.4c0-3.9-0.8-7.4-2.5-10.4c-1.7-3-3.9-5.3-6.6-6.9c-2.7-1.6-5.7-2.4-8.9-2.4
				c-3.1,0-6,0.8-8.8,2.4c-2.7,1.6-4.9,3.9-6.6,6.9c-1.7,3-2.5,6.5-2.5,10.4c0,3.9,0.8,7.4,2.5,10.4c1.7,3,3.9,5.3,6.6,6.9
				c2.7,1.6,5.7,2.4,8.8,2.4C623.8,144.7,626.7,143.9,629.5,142.3z"/>
			<path class="st6" d="M663.9,147.2c-3.3-3.7-5-8.9-5-15.5v-33h9v31.5c0,9.6,4.3,14.5,13,14.5c2.9,0,5.5-0.8,7.8-2.4
				c2.3-1.6,4-3.7,5.3-6.3c1.2-2.6,1.8-5.4,1.8-8.2V98.8h8.9v52.4h-8.5v-7.8h-0.4c-1.5,2.7-3.9,4.9-7,6.8c-3.1,1.8-6.5,2.7-10.1,2.7
				C672.1,152.8,667.2,151,663.9,147.2z"/>
			<path class="st6" d="M726.1,150.6c-3.1-1.5-5.5-3.6-7.2-6.3c-1.7-2.7-2.6-5.8-2.6-9.1c0-5.6,2.1-9.9,6.3-13
				c4.2-3.1,9.6-4.6,16.1-4.6c3.2,0,6.2,0.4,8.8,1.1c2.6,0.7,4.7,1.5,6.2,2.3v-2.7c0-2.5-0.7-4.8-2-6.8c-1.3-2-3-3.6-5.2-4.6
				c-2.2-1.1-4.5-1.6-7.1-1.6c-6,0-10.6,2.4-13.7,7.3l-7.5-5c2.2-3.2,5.1-5.8,8.7-7.6c3.6-1.8,7.6-2.7,12.1-2.7
				c7.2,0,12.9,1.9,17,5.8c4.2,3.9,6.2,9.1,6.2,15.6v32.6h-8.6v-7.7h-0.4c-1.7,2.7-4,4.9-6.9,6.7c-2.9,1.8-6.2,2.7-10,2.7
				C732.6,152.8,729.1,152.1,726.1,150.6z M745.1,142.7c2.5-1.5,4.6-3.5,6.2-6c1.6-2.5,2.4-5.3,2.4-8.2c-3.9-2.5-8.5-3.8-13.6-3.8
				c-4.4,0-8,1-10.6,3c-2.6,2-4,4.6-4,7.7c0,2.8,1.2,5.1,3.5,6.9c2.3,1.8,5,2.7,8.1,2.7C739.9,144.9,742.6,144.2,745.1,142.7z"/>
			<path class="st6" d="M776.6,75.5h9v75.6h-9V75.5z"/>
			<path class="st6" d="M807,150.6c-3.1-1.5-5.5-3.6-7.2-6.3c-1.7-2.7-2.6-5.8-2.6-9.1c0-5.6,2.1-9.9,6.3-13
				c4.2-3.1,9.6-4.6,16.1-4.6c3.2,0,6.2,0.4,8.8,1.1c2.6,0.7,4.7,1.5,6.2,2.3v-2.7c0-2.5-0.7-4.8-2-6.8c-1.3-2-3-3.6-5.2-4.6
				c-2.2-1.1-4.5-1.6-7.1-1.6c-6,0-10.6,2.4-13.7,7.3l-7.5-5c2.2-3.2,5.1-5.8,8.7-7.6s7.6-2.7,12.1-2.7c7.2,0,12.9,1.9,17,5.8
				c4.2,3.9,6.2,9.1,6.2,15.6v32.6h-8.6v-7.7h-0.4c-1.7,2.7-4,4.9-6.9,6.7c-2.9,1.8-6.2,2.7-10,2.7
				C813.5,152.8,810.1,152.1,807,150.6z M826.1,142.7c2.5-1.5,4.6-3.5,6.2-6c1.6-2.5,2.4-5.3,2.4-8.2c-3.9-2.5-8.5-3.8-13.6-3.8
				c-4.4,0-8,1-10.6,3c-2.6,2-4,4.6-4,7.7c0,2.8,1.2,5.1,3.5,6.9s5,2.7,8.1,2.7C820.9,144.9,823.5,144.2,826.1,142.7z"/>
		</g>
	</g>
	<g>
		<g>
			<path class="st6" d="M119.3,157.1c-3.1,5.3-8.7,8.3-14.4,8.3c-2.8,0-5.7-0.7-8.3-2.2l-58.4-33.7c-8-4.6-10.7-14.8-6.1-22.7
				c3.1-5.3,8.7-8.3,14.4-8.3c2.8,0,5.7,0.7,8.3,2.2l58.4,33.7C121.1,139,123.9,149.1,119.3,157.1z"/>
			<path class="st6" d="M148.5,73c3.1-5.3,8.7-8.3,14.4-8.3c2.8,0,5.7,0.7,8.3,2.2l58.4,33.7c8,4.6,10.7,14.8,6.1,22.7
				c-3.1,5.3-8.7,8.3-14.4,8.3c-2.8,0-5.7-0.7-8.3-2.2l-58.4-33.7C146.7,91.1,143.9,81,148.5,73z"/>
			<path class="st6" d="M113.2,95.7l-29.4,17l-27-15.6c-2.5-1.4-5.2-2.3-8-2.6l47.7-27.6c2.6-1.5,5.5-2.2,8.3-2.2
				c5.7,0,11.3,3,14.4,8.3C123.9,81,121.1,91.1,113.2,95.7z"/>
			<path class="st6" d="M154.6,134.4l29.4-17l27,15.6c2.5,1.4,5.2,2.3,8,2.6l-47.7,27.6c-2.6,1.5-5.5,2.2-8.3,2.2
				c-5.7,0-11.3-3-14.4-8.3C143.9,149.1,146.7,139,154.6,134.4z"/>
		</g>
		<g>
			<g>
				<path class="st6" d="M302.9,148.4c-5.8-3.3-10.4-7.9-13.8-13.8c-3.4-5.9-5.1-12.3-5.1-19.4c0-7.1,1.7-13.5,5.1-19.4
					c3.4-5.9,8-10.4,13.8-13.8c5.8-3.3,12.1-5,19-5c5.4,0,10.4,1,15.2,2.9c4.7,1.9,8.6,4.6,11.7,8.1l-6.2,6.2
					c-2.3-2.9-5.3-5.1-8.9-6.6c-3.6-1.5-7.5-2.3-11.6-2.3c-5.2,0-10,1.2-14.4,3.7c-4.5,2.5-8,6-10.7,10.5c-2.7,4.5-4,9.7-4,15.7
					s1.3,11.1,4,15.7c2.7,4.5,6.3,8,10.8,10.5c4.5,2.5,9.3,3.7,14.4,3.7c4.9,0,9-0.8,12.3-2.3c3.3-1.5,6.1-3.6,8.5-6.1
					c1.8-1.9,3.2-4.2,4.3-6.9c1.1-2.7,1.8-5.7,2-8.9h-27v-8.1h35.1c0.3,1.9,0.5,3.7,0.5,5.3c0,4.5-0.7,8.9-2.1,13.1
					c-1.4,4.3-3.7,8-6.8,11.2c-6.7,7.3-15.7,10.9-26.8,10.9C315,153.4,308.7,151.8,302.9,148.4z"/>
				<path class="st6" d="M368.4,78.7h22c7.5,0,14,1.5,19.6,4.6c5.6,3.1,9.9,7.4,12.9,12.9c3,5.5,4.5,11.8,4.5,19
					c0,7.1-1.5,13.5-4.5,19c-3,5.5-7.3,9.8-12.9,12.9c-5.6,3.1-12.1,4.6-19.6,4.6h-22V78.7z M390.5,143.5c8.6,0,15.5-2.5,20.6-7.5
					c5.1-5,7.6-11.9,7.6-20.8c0-8.9-2.5-15.9-7.6-20.8c-5.1-5-11.9-7.5-20.6-7.5H377v56.5H390.5z"/>
				<path class="st6" d="M453.4,148.4c-5.8-3.3-10.4-7.9-13.8-13.8c-3.4-5.9-5.1-12.3-5.1-19.4c0-7.1,1.7-13.5,5.1-19.4
					c3.4-5.9,8-10.4,13.8-13.8c5.8-3.3,12.1-5,19-5c5.4,0,10.4,1,15.2,2.9c4.7,1.9,8.6,4.6,11.7,8.1l-6.2,6.2
					c-2.3-2.9-5.3-5.1-8.9-6.6c-3.6-1.5-7.5-2.3-11.6-2.3c-5.2,0-10,1.2-14.4,3.7c-4.5,2.5-8,6-10.7,10.5c-2.7,4.5-4,9.7-4,15.7
					s1.3,11.1,4,15.7c2.7,4.5,6.3,8,10.8,10.5c4.5,2.5,9.3,3.7,14.4,3.7c4.9,0,9-0.8,12.3-2.3c3.3-1.5,6.1-3.6,8.5-6.1
					c1.8-1.9,3.2-4.2,4.3-6.9c1.1-2.7,1.8-5.7,2-8.9h-27v-8.1h35.1c0.3,1.9,0.5,3.7,0.5,5.3c0,4.5-0.7,8.9-2.1,13.1
					c-1.4,4.3-3.7,8-6.8,11.2c-6.7,7.3-15.7,10.9-26.8,10.9C465.6,153.4,459.2,151.8,453.4,148.4z"/>
			</g>
		</g>
	</g>
</g>
</svg>
